# Blender v2.78 (sub 0) OBJ File: ''
# www.blender.org
mtllib cornell_box_cube00.mtl
o leftWall
v 0.530000 0.601000 0.750000
v 0.130000 0.601000 0.000000
v -0.050000 0.601000 0.570000
v -0.050000 0.601000 0.570000
v 0.130000 0.001000 0.000000
v -0.050000 0.001000 0.570000
v 0.530000 0.601000 0.750000
v -0.050000 0.001000 0.570000
v 0.530000 0.001000 0.750000
v 0.700000 0.601000 0.170000
v 0.530000 0.001000 0.750000
v 0.700000 0.001000 0.170000
v 0.130000 0.601000 0.000000
v 0.700000 0.001000 0.170000
v 0.130000 0.001000 0.000000
v 0.700000 0.601000 0.170000
v 0.130000 0.601000 0.000000
v -0.050000 0.601000 0.570000
v 0.530000 0.601000 0.750000
v 0.700000 0.601000 0.170000
vn 0.0000 1.0000 0.0000
vn -0.9536 0.0000 -0.3011
vn -0.2964 0.0000 0.9551
vn 0.9596 -0.0000 0.2813
vn 0.2858 0.0000 -0.9583
vn -0.0000 -1.0000 -0.0000
usemtl shortBox
s 1
f 1//1 2//1 3//1
f 4//2 5//2 6//2
f 7//3 8//3 9//3
f 10//4 11//4 12//4
f 13//5 14//5 15//5
f 1//1 16//1 2//1
f 4//2 17//2 5//2
f 7//3 18//3 8//3
f 10//4 19//4 11//4
f 13//5 20//5 14//5
f 15//6 11//6 8//6
f 15//6 14//6 11//6
