# Blender v2.78 (sub 0) OBJ File: ''
# www.blender.org
mtllib cornell_box05.mtl
o leftWall
v 1.000000 -0.000000 0.990000
v -0.990000 0.000000 -1.040000
v -1.010000 -0.000000 0.990000
v 1.000000 0.000000 -1.040000
v -0.990000 0.000000 -1.040000
v 1.000000 1.990000 -1.040000
v -1.020000 1.990000 -1.040000
v 1.000000 0.000000 -1.040000
v -1.020000 1.990000 -1.040000
v 1.000000 1.990000 0.990000
v -1.020000 1.990000 0.990000
v 1.000000 1.990000 -1.040000
vn 0.0000 1.0000 0.0000
vn 0.0000 -0.0000 1.0000
vn 0.0000 -1.0000 0.0000
usemtl floor
s 1
f 1//1 2//1 3//1
f 1//1 4//1 2//1
usemtl backWall
f 5//2 6//2 7//2
f 5//2 8//2 6//2
usemtl ceiling
f 9//3 10//3 11//3
f 9//3 12//3 10//3
o light
v -0.240000 1.980000 -0.220000
v 0.230000 1.980000 0.160000
v -0.240000 1.980000 0.160000
v 0.230000 1.980000 -0.220000
vn 0.0000 -1.0000 0.0000
usemtl light
s 1
f 13//4 14//4 15//4
f 13//4 16//4 14//4
