# Blender v2.78 (sub 0) OBJ File: ''
# www.blender.org
mtllib cornell_box01.mtl
o leftWall
v -0.530000 1.200000 0.090000
v 0.040000 1.200000 -0.090000
v -0.140000 1.200000 -0.670000
v -0.710000 1.200000 -0.490000
v -0.530000 -0.000000 0.090000
v -0.530000 1.200000 0.090000
v -0.710000 1.200000 -0.490000
v -0.710000 0.000000 -0.490000
v -0.710000 0.000000 -0.490000
v -0.710000 1.200000 -0.490000
v -0.140000 1.200000 -0.670000
v -0.140000 0.000000 -0.670000
v -0.140000 0.000000 -0.670000
v -0.140000 1.200000 -0.670000
v 0.040000 1.200000 -0.090000
v 0.040000 0.000000 -0.090000
v 0.040000 0.000000 -0.090000
v 0.040000 1.200000 -0.090000
v -0.530000 1.200000 0.090000
v -0.530000 -0.000000 0.090000
v -1.010000 -0.000000 0.990000
v 1.000000 -0.000000 0.990000
v 1.000000 0.000000 -1.040000
v -0.990000 0.000000 -1.040000
v -0.990000 0.000000 -1.040000
v 1.000000 0.000000 -1.040000
v 1.000000 1.990000 -1.040000
v -1.020000 1.990000 -1.040000
v -1.020000 1.990000 0.990000
v -1.020000 1.990000 -1.040000
v 1.000000 1.990000 -1.040000
v 1.000000 1.990000 0.990000
v 0.530000 0.600000 0.750000
v 0.700000 0.600000 0.170000
v 0.130000 0.600000 0.000000
v -0.050000 0.600000 0.570000
v -0.050000 -0.000000 0.570000
v -0.050000 0.600000 0.570000
v 0.130000 0.600000 0.000000
v 0.130000 0.000000 0.000000
v 0.530000 -0.000000 0.750000
v 0.530000 0.600000 0.750000
v -0.050000 0.600000 0.570000
v -0.050000 -0.000000 0.570000
v 0.700000 -0.000000 0.170000
v 0.700000 0.600000 0.170000
v 0.530000 0.600000 0.750000
v 0.530000 -0.000000 0.750000
v 0.130000 0.000000 0.000000
v 0.130000 0.600000 0.000000
v 0.700000 0.600000 0.170000
v 0.700000 -0.000000 0.170000
vn 0.0000 1.0000 0.0000
vn -0.9536 0.0000 -0.3011
vn -0.2964 0.0000 0.9551
vn 0.9596 -0.0000 0.2813
vn 0.2858 0.0000 -0.9583
vn -0.9551 0.0000 0.2964
vn -0.3011 0.0000 -0.9536
vn 0.9551 0.0000 -0.2964
vn 0.3011 -0.0000 0.9536
vn 0.0000 -0.0000 1.0000
vn 0.0000 -1.0000 0.0000
usemtl shortBox
s off
f 33//1 35//1 36//1
f 38//2 40//2 37//2
f 42//3 44//3 41//3
f 46//4 48//4 45//4
f 50//5 52//5 49//5
f 33//1 34//1 35//1
f 38//2 39//2 40//2
f 42//3 43//3 44//3
f 46//4 47//4 48//4
f 50//5 51//5 52//5
usemtl tallBox
f 2//1 4//1 1//1
f 6//6 8//6 5//6
f 10//7 12//7 9//7
f 14//8 16//8 13//8
f 18//9 20//9 17//9
f 2//1 3//1 4//1
f 6//6 7//6 8//6
f 10//7 11//7 12//7
f 14//8 15//8 16//8
f 18//9 19//9 20//9
usemtl floor
f 22//1 24//1 21//1
f 22//1 23//1 24//1
usemtl backWall
f 25//10 27//10 28//10
f 25//10 26//10 27//10
usemtl ceiling
f 30//11 32//11 29//11
f 30//11 31//11 32//11
