# Blender v2.78 (sub 0) OBJ File: 'tree.blend'
# www.blender.org
mtllib cube_tree.mtl
o Cube.001
v -1.853220 2.026548 1.637007
v -1.853220 0.026549 -1.637007
v -1.853220 0.026549 1.637007
v -1.853220 2.026548 -1.637007
v 1.853220 0.026549 -1.637007
v 1.853220 2.026548 -1.637007
v 1.853220 0.026549 1.637007
v 1.853220 2.026548 1.637007
v -1.853220 5.293933 -1.637007
v 1.853220 5.293933 1.637007
v 1.853220 5.293933 -1.637007
v -1.853220 5.293933 1.637007
vn -1.0000 -0.0000 0.0000
vn 0.0000 0.0000 -1.0000
vn 1.0000 0.0000 0.0000
vn 0.0000 -0.0000 1.0000
vn 0.0000 -1.0000 -0.0000
vn 0.0000 1.0000 0.0000
usemtl None.002
s 1
f 1//1 2//1 3//1
f 4//2 5//2 2//2
f 6//3 7//3 5//3
f 8//4 3//4 7//4
f 5//5 3//5 2//5
f 1//1 9//1 4//1
f 9//6 10//6 11//6
f 8//4 12//4 1//4
f 4//2 11//2 6//2
f 6//3 10//3 8//3
f 1//1 4//1 2//1
f 4//2 6//2 5//2
f 6//3 8//3 7//3
f 8//4 1//4 3//4
f 5//5 7//5 3//5
f 1//1 12//1 9//1
f 9//6 12//6 10//6
f 8//4 10//4 12//4
f 4//2 9//2 11//2
f 6//3 11//3 10//3
